<mxfile host="Electron" modified="2024-10-24T15:17:21.748Z" agent="Mozilla/5.0 (Windows NT 10.0; Win64; x64) AppleWebKit/537.36 (KHTML, like Gecko) draw.io/24.1.0 Chrome/120.0.6099.109 Electron/28.1.0 Safari/537.36" etag="USe9-zLPlEIEfYZ8dO4M" version="24.1.0" type="device">
  <diagram name="Página-1" id="HnM5bIwWVijFqjH4xQIT">
    <mxGraphModel dx="956" dy="1116" grid="1" gridSize="10" guides="1" tooltips="1" connect="1" arrows="1" fold="1" page="1" pageScale="1" pageWidth="827" pageHeight="1169" math="0" shadow="0">
      <root>
        <mxCell id="0" />
        <mxCell id="1" parent="0" />
        <mxCell id="9hvnd5XY3FECfgj-unJh-1" value="&amp;lt;&amp;lt;component&amp;gt;&amp;gt;&lt;div&gt;&amp;lt;&amp;lt;C4 System&amp;gt;&amp;gt;&lt;br&gt;&lt;b&gt;Hospital&lt;/b&gt;&lt;/div&gt;&lt;div&gt;&lt;b&gt;&lt;br&gt;&lt;/b&gt;&lt;/div&gt;&lt;div&gt;&lt;b&gt;&lt;br&gt;&lt;/b&gt;&lt;/div&gt;&lt;div&gt;&lt;b&gt;&lt;br&gt;&lt;/b&gt;&lt;/div&gt;&lt;div&gt;&lt;b&gt;&lt;br&gt;&lt;/b&gt;&lt;/div&gt;&lt;div&gt;&lt;b&gt;&lt;br&gt;&lt;/b&gt;&lt;/div&gt;&lt;div&gt;&lt;b&gt;&lt;br&gt;&lt;/b&gt;&lt;/div&gt;&lt;div&gt;&lt;b&gt;&lt;br&gt;&lt;/b&gt;&lt;/div&gt;&lt;div&gt;&lt;b&gt;&lt;br&gt;&lt;/b&gt;&lt;/div&gt;&lt;div&gt;&lt;b&gt;&lt;br&gt;&lt;/b&gt;&lt;/div&gt;&lt;div&gt;&lt;b&gt;&lt;br&gt;&lt;/b&gt;&lt;/div&gt;&lt;div&gt;&lt;b&gt;&lt;br&gt;&lt;/b&gt;&lt;/div&gt;&lt;div&gt;&lt;b&gt;&lt;br&gt;&lt;/b&gt;&lt;/div&gt;&lt;div&gt;&lt;b&gt;&lt;br&gt;&lt;/b&gt;&lt;/div&gt;&lt;div&gt;&lt;b&gt;&lt;br&gt;&lt;/b&gt;&lt;/div&gt;&lt;div&gt;&lt;b&gt;&lt;br&gt;&lt;/b&gt;&lt;/div&gt;&lt;div&gt;&lt;b&gt;&lt;br&gt;&lt;/b&gt;&lt;/div&gt;&lt;div&gt;&lt;b&gt;&lt;br&gt;&lt;/b&gt;&lt;/div&gt;&lt;div&gt;&lt;b&gt;&lt;br&gt;&lt;/b&gt;&lt;/div&gt;" style="html=1;dropTarget=0;whiteSpace=wrap;" parent="1" vertex="1">
          <mxGeometry x="220" y="280" width="630" height="320" as="geometry" />
        </mxCell>
        <mxCell id="9hvnd5XY3FECfgj-unJh-2" value="" style="shape=module;jettyWidth=8;jettyHeight=4;" parent="9hvnd5XY3FECfgj-unJh-1" vertex="1">
          <mxGeometry x="1" width="20" height="20" relative="1" as="geometry">
            <mxPoint x="-27" y="7" as="offset" />
          </mxGeometry>
        </mxCell>
        <mxCell id="9hvnd5XY3FECfgj-unJh-5" value="" style="verticalLabelPosition=bottom;verticalAlign=top;html=1;shape=mxgraph.basic.rect;fillColor2=none;strokeWidth=1;size=20;indent=5;" parent="1" vertex="1">
          <mxGeometry x="340" y="270" width="20" height="20" as="geometry" />
        </mxCell>
        <mxCell id="ooqkrZ7QVD6ZfjdskcqB-1" value="&amp;lt;&amp;lt;component&amp;gt;&amp;gt;&lt;div&gt;&amp;lt;&amp;lt;container (C4)&amp;gt;&amp;gt;&lt;br&gt;&lt;div&gt;&lt;b&gt;Visualização (UI)&lt;/b&gt;&lt;/div&gt;&lt;/div&gt;" style="html=1;dropTarget=0;whiteSpace=wrap;" parent="1" vertex="1">
          <mxGeometry x="240" y="340" width="220" height="90" as="geometry" />
        </mxCell>
        <mxCell id="ooqkrZ7QVD6ZfjdskcqB-2" value="" style="shape=module;jettyWidth=8;jettyHeight=4;" parent="ooqkrZ7QVD6ZfjdskcqB-1" vertex="1">
          <mxGeometry x="1" width="20" height="20" relative="1" as="geometry">
            <mxPoint x="-27" y="7" as="offset" />
          </mxGeometry>
        </mxCell>
        <mxCell id="ooqkrZ7QVD6ZfjdskcqB-3" value="" style="verticalLabelPosition=bottom;verticalAlign=top;html=1;shape=mxgraph.basic.rect;fillColor2=none;strokeWidth=1;size=20;indent=5;" parent="1" vertex="1">
          <mxGeometry x="340" y="330" width="20" height="20" as="geometry" />
        </mxCell>
        <mxCell id="ooqkrZ7QVD6ZfjdskcqB-4" value="" style="endArrow=none;html=1;rounded=0;exitX=0.488;exitY=0.015;exitDx=0;exitDy=0;exitPerimeter=0;entryX=0.488;entryY=1.026;entryDx=0;entryDy=0;entryPerimeter=0;" parent="1" source="ooqkrZ7QVD6ZfjdskcqB-3" target="9hvnd5XY3FECfgj-unJh-5" edge="1">
          <mxGeometry width="50" height="50" relative="1" as="geometry">
            <mxPoint x="410" y="370" as="sourcePoint" />
            <mxPoint x="460" y="320" as="targetPoint" />
          </mxGeometry>
        </mxCell>
        <mxCell id="ooqkrZ7QVD6ZfjdskcqB-6" value="" style="ellipse;whiteSpace=wrap;html=1;align=center;aspect=fixed;fillColor=none;strokeColor=none;resizable=0;perimeter=centerPerimeter;rotatable=0;allowArrows=0;points=[];outlineConnect=1;" parent="1" vertex="1">
          <mxGeometry x="370" y="390" width="10" height="10" as="geometry" />
        </mxCell>
        <mxCell id="YtNtoetQPvMVZuGuoTsO-4" value="" style="ellipse;whiteSpace=wrap;html=1;aspect=fixed;" parent="1" vertex="1">
          <mxGeometry x="290" y="170" width="30" height="30" as="geometry" />
        </mxCell>
        <mxCell id="YtNtoetQPvMVZuGuoTsO-5" value="" style="ellipse;whiteSpace=wrap;html=1;aspect=fixed;" parent="1" vertex="1">
          <mxGeometry x="370" y="170" width="30" height="30" as="geometry" />
        </mxCell>
        <mxCell id="YtNtoetQPvMVZuGuoTsO-8" value="" style="endArrow=none;html=1;rounded=0;entryX=1;entryY=1;entryDx=0;entryDy=0;exitX=0.55;exitY=0.011;exitDx=0;exitDy=0;exitPerimeter=0;" parent="1" source="9hvnd5XY3FECfgj-unJh-5" target="YtNtoetQPvMVZuGuoTsO-4" edge="1">
          <mxGeometry width="50" height="50" relative="1" as="geometry">
            <mxPoint x="320" y="280" as="sourcePoint" />
            <mxPoint x="370" y="230" as="targetPoint" />
          </mxGeometry>
        </mxCell>
        <mxCell id="YtNtoetQPvMVZuGuoTsO-10" value="UI Staff" style="edgeLabel;html=1;align=center;verticalAlign=middle;resizable=0;points=[];" parent="YtNtoetQPvMVZuGuoTsO-8" vertex="1" connectable="0">
          <mxGeometry x="0.7303" y="1" relative="1" as="geometry">
            <mxPoint x="-9" y="4" as="offset" />
          </mxGeometry>
        </mxCell>
        <mxCell id="YtNtoetQPvMVZuGuoTsO-9" value="" style="endArrow=none;html=1;rounded=0;entryX=0;entryY=1;entryDx=0;entryDy=0;exitX=0.55;exitY=0.078;exitDx=0;exitDy=0;exitPerimeter=0;" parent="1" source="9hvnd5XY3FECfgj-unJh-5" target="YtNtoetQPvMVZuGuoTsO-5" edge="1">
          <mxGeometry width="50" height="50" relative="1" as="geometry">
            <mxPoint x="361" y="280" as="sourcePoint" />
            <mxPoint x="326" y="206" as="targetPoint" />
          </mxGeometry>
        </mxCell>
        <mxCell id="YtNtoetQPvMVZuGuoTsO-11" value="UI Patient" style="edgeLabel;html=1;align=center;verticalAlign=middle;resizable=0;points=[];" parent="YtNtoetQPvMVZuGuoTsO-9" vertex="1" connectable="0">
          <mxGeometry x="0.6048" y="2" relative="1" as="geometry">
            <mxPoint x="12" as="offset" />
          </mxGeometry>
        </mxCell>
        <mxCell id="YtNtoetQPvMVZuGuoTsO-12" value="«component»&lt;div&gt;«container (C4)»&lt;br&gt;&lt;b&gt;Planeamento&lt;/b&gt;&lt;/div&gt;" style="html=1;dropTarget=0;whiteSpace=wrap;" parent="1" vertex="1">
          <mxGeometry x="600" y="340" width="180" height="90" as="geometry" />
        </mxCell>
        <mxCell id="YtNtoetQPvMVZuGuoTsO-13" value="" style="shape=module;jettyWidth=8;jettyHeight=4;" parent="YtNtoetQPvMVZuGuoTsO-12" vertex="1">
          <mxGeometry x="1" width="20" height="20" relative="1" as="geometry">
            <mxPoint x="-27" y="7" as="offset" />
          </mxGeometry>
        </mxCell>
        <mxCell id="YtNtoetQPvMVZuGuoTsO-14" value="«component»&lt;div&gt;«container (C4)»&lt;br&gt;&lt;b&gt;Backend&lt;/b&gt;&lt;/div&gt;" style="html=1;dropTarget=0;whiteSpace=wrap;" parent="1" vertex="1">
          <mxGeometry x="600" y="480" width="180" height="90" as="geometry" />
        </mxCell>
        <mxCell id="YtNtoetQPvMVZuGuoTsO-15" value="" style="shape=module;jettyWidth=8;jettyHeight=4;" parent="YtNtoetQPvMVZuGuoTsO-14" vertex="1">
          <mxGeometry x="1" width="20" height="20" relative="1" as="geometry">
            <mxPoint x="-27" y="7" as="offset" />
          </mxGeometry>
        </mxCell>
        <mxCell id="YtNtoetQPvMVZuGuoTsO-22" value="" style="rounded=0;orthogonalLoop=1;jettySize=auto;html=1;endArrow=halfCircle;endFill=0;endSize=6;strokeWidth=1;sketch=0;" parent="1" edge="1">
          <mxGeometry relative="1" as="geometry">
            <mxPoint x="460" y="384.83" as="sourcePoint" />
            <mxPoint x="520" y="385" as="targetPoint" />
          </mxGeometry>
        </mxCell>
        <mxCell id="YtNtoetQPvMVZuGuoTsO-23" value="" style="rounded=0;orthogonalLoop=1;jettySize=auto;html=1;endArrow=oval;endFill=0;sketch=0;sourcePerimeterSpacing=0;targetPerimeterSpacing=0;endSize=10;" parent="1" edge="1">
          <mxGeometry relative="1" as="geometry">
            <mxPoint x="600" y="384.83" as="sourcePoint" />
            <mxPoint x="520" y="385" as="targetPoint" />
          </mxGeometry>
        </mxCell>
        <mxCell id="YtNtoetQPvMVZuGuoTsO-25" value="&lt;b&gt;Planeamento API&lt;/b&gt;" style="edgeLabel;html=1;align=center;verticalAlign=middle;resizable=0;points=[];" parent="YtNtoetQPvMVZuGuoTsO-23" vertex="1" connectable="0">
          <mxGeometry x="0.7483" relative="1" as="geometry">
            <mxPoint y="15" as="offset" />
          </mxGeometry>
        </mxCell>
        <mxCell id="YtNtoetQPvMVZuGuoTsO-24" value="" style="ellipse;whiteSpace=wrap;html=1;align=center;aspect=fixed;fillColor=none;strokeColor=none;resizable=0;perimeter=centerPerimeter;rotatable=0;allowArrows=0;points=[];outlineConnect=1;" parent="1" vertex="1">
          <mxGeometry x="545" y="420" width="10" height="10" as="geometry" />
        </mxCell>
        <mxCell id="YtNtoetQPvMVZuGuoTsO-26" value="" style="rounded=0;whiteSpace=wrap;html=1;" parent="1" vertex="1">
          <mxGeometry x="450" y="375" width="20" height="20" as="geometry" />
        </mxCell>
        <mxCell id="YtNtoetQPvMVZuGuoTsO-28" value="" style="rounded=0;whiteSpace=wrap;html=1;" parent="1" vertex="1">
          <mxGeometry x="590" y="375" width="20" height="20" as="geometry" />
        </mxCell>
        <mxCell id="YtNtoetQPvMVZuGuoTsO-35" value="" style="rounded=0;orthogonalLoop=1;jettySize=auto;html=1;endArrow=halfCircle;endFill=0;endSize=6;strokeWidth=1;sketch=0;exitX=0.5;exitY=1;exitDx=0;exitDy=0;" parent="1" source="YtNtoetQPvMVZuGuoTsO-38" edge="1">
          <mxGeometry relative="1" as="geometry">
            <mxPoint x="460" y="524.8299999999999" as="sourcePoint" />
            <mxPoint x="520" y="525" as="targetPoint" />
            <Array as="points">
              <mxPoint x="370" y="525" />
            </Array>
          </mxGeometry>
        </mxCell>
        <mxCell id="YtNtoetQPvMVZuGuoTsO-36" value="" style="rounded=0;orthogonalLoop=1;jettySize=auto;html=1;endArrow=oval;endFill=0;sketch=0;sourcePerimeterSpacing=0;targetPerimeterSpacing=0;endSize=10;" parent="1" edge="1">
          <mxGeometry relative="1" as="geometry">
            <mxPoint x="600" y="524.8299999999999" as="sourcePoint" />
            <mxPoint x="520" y="525" as="targetPoint" />
          </mxGeometry>
        </mxCell>
        <mxCell id="YtNtoetQPvMVZuGuoTsO-37" value="&lt;b&gt;Backend API&lt;/b&gt;" style="edgeLabel;html=1;align=center;verticalAlign=middle;resizable=0;points=[];" parent="YtNtoetQPvMVZuGuoTsO-36" vertex="1" connectable="0">
          <mxGeometry x="0.7483" relative="1" as="geometry">
            <mxPoint y="15" as="offset" />
          </mxGeometry>
        </mxCell>
        <mxCell id="YtNtoetQPvMVZuGuoTsO-38" value="" style="rounded=0;whiteSpace=wrap;html=1;" parent="1" vertex="1">
          <mxGeometry x="360" y="420" width="20" height="20" as="geometry" />
        </mxCell>
        <mxCell id="YtNtoetQPvMVZuGuoTsO-39" value="" style="rounded=0;whiteSpace=wrap;html=1;" parent="1" vertex="1">
          <mxGeometry x="590" y="515" width="20" height="20" as="geometry" />
        </mxCell>
        <mxCell id="YtNtoetQPvMVZuGuoTsO-40" value="" style="rounded=0;orthogonalLoop=1;jettySize=auto;html=1;endArrow=halfCircle;endFill=0;endSize=6;strokeWidth=1;sketch=0;exitX=0.5;exitY=1;exitDx=0;exitDy=0;" parent="1" source="YtNtoetQPvMVZuGuoTsO-43" edge="1">
          <mxGeometry relative="1" as="geometry">
            <mxPoint x="625" y="625" as="sourcePoint" />
            <mxPoint x="645" y="660" as="targetPoint" />
          </mxGeometry>
        </mxCell>
        <mxCell id="YtNtoetQPvMVZuGuoTsO-47" value="&lt;b&gt;Database API&lt;/b&gt;" style="edgeLabel;html=1;align=center;verticalAlign=middle;resizable=0;points=[];" parent="YtNtoetQPvMVZuGuoTsO-40" vertex="1" connectable="0">
          <mxGeometry x="0.3547" relative="1" as="geometry">
            <mxPoint y="26" as="offset" />
          </mxGeometry>
        </mxCell>
        <mxCell id="YtNtoetQPvMVZuGuoTsO-42" value="" style="ellipse;whiteSpace=wrap;html=1;align=center;aspect=fixed;fillColor=none;strokeColor=none;resizable=0;perimeter=centerPerimeter;rotatable=0;allowArrows=0;points=[];outlineConnect=1;" parent="1" vertex="1">
          <mxGeometry x="645" y="620" width="10" height="10" as="geometry" />
        </mxCell>
        <mxCell id="YtNtoetQPvMVZuGuoTsO-43" value="" style="rounded=0;whiteSpace=wrap;html=1;" parent="1" vertex="1">
          <mxGeometry x="635" y="590" width="20" height="20" as="geometry" />
        </mxCell>
        <mxCell id="YtNtoetQPvMVZuGuoTsO-46" value="" style="endArrow=none;html=1;rounded=0;entryX=0.5;entryY=1;entryDx=0;entryDy=0;exitX=0.5;exitY=0;exitDx=0;exitDy=0;" parent="1" source="YtNtoetQPvMVZuGuoTsO-43" edge="1">
          <mxGeometry width="50" height="50" relative="1" as="geometry">
            <mxPoint x="495" y="570" as="sourcePoint" />
            <mxPoint x="645" y="570" as="targetPoint" />
          </mxGeometry>
        </mxCell>
        <mxCell id="YtNtoetQPvMVZuGuoTsO-51" value="" style="rounded=0;orthogonalLoop=1;jettySize=auto;html=1;endArrow=halfCircle;endFill=0;endSize=6;strokeWidth=1;sketch=0;exitX=0.5;exitY=1;exitDx=0;exitDy=0;" parent="1" source="YtNtoetQPvMVZuGuoTsO-53" edge="1">
          <mxGeometry relative="1" as="geometry">
            <mxPoint x="750" y="625" as="sourcePoint" />
            <mxPoint x="770" y="660" as="targetPoint" />
          </mxGeometry>
        </mxCell>
        <mxCell id="YtNtoetQPvMVZuGuoTsO-52" value="&lt;b&gt;IAM API&lt;/b&gt;" style="edgeLabel;html=1;align=center;verticalAlign=middle;resizable=0;points=[];" parent="YtNtoetQPvMVZuGuoTsO-51" vertex="1" connectable="0">
          <mxGeometry x="0.3547" relative="1" as="geometry">
            <mxPoint y="26" as="offset" />
          </mxGeometry>
        </mxCell>
        <mxCell id="YtNtoetQPvMVZuGuoTsO-53" value="" style="rounded=0;whiteSpace=wrap;html=1;" parent="1" vertex="1">
          <mxGeometry x="760" y="590" width="20" height="20" as="geometry" />
        </mxCell>
        <mxCell id="YtNtoetQPvMVZuGuoTsO-54" value="" style="endArrow=none;html=1;rounded=0;entryX=0.5;entryY=1;entryDx=0;entryDy=0;exitX=0.5;exitY=0;exitDx=0;exitDy=0;" parent="1" source="YtNtoetQPvMVZuGuoTsO-53" edge="1">
          <mxGeometry width="50" height="50" relative="1" as="geometry">
            <mxPoint x="620" y="570" as="sourcePoint" />
            <mxPoint x="770" y="570" as="targetPoint" />
          </mxGeometry>
        </mxCell>
        <mxCell id="Ly5B_k_x6CgCPlhgzf_a-1" value="" style="rounded=0;orthogonalLoop=1;jettySize=auto;html=1;endArrow=halfCircle;endFill=0;endSize=6;strokeWidth=1;sketch=0;fontSize=12;curved=1;exitX=0;exitY=0.5;exitDx=0;exitDy=0;" parent="1" source="YtNtoetQPvMVZuGuoTsO-28" edge="1">
          <mxGeometry relative="1" as="geometry">
            <mxPoint x="595" y="535" as="sourcePoint" />
            <mxPoint x="520" y="520" as="targetPoint" />
          </mxGeometry>
        </mxCell>
        <mxCell id="Ly5B_k_x6CgCPlhgzf_a-2" value="" style="ellipse;whiteSpace=wrap;html=1;align=center;aspect=fixed;fillColor=none;strokeColor=none;resizable=0;perimeter=centerPerimeter;rotatable=0;allowArrows=0;points=[];outlineConnect=1;" parent="1" vertex="1">
          <mxGeometry x="570" y="530" width="10" height="10" as="geometry" />
        </mxCell>
        <mxCell id="r7B8fsAXVf-NEV4fAoJl-1" value="" style="rounded=0;whiteSpace=wrap;html=1;" vertex="1" parent="1">
          <mxGeometry x="840" y="515" width="20" height="20" as="geometry" />
        </mxCell>
        <mxCell id="r7B8fsAXVf-NEV4fAoJl-2" value="" style="endArrow=none;html=1;rounded=0;exitX=1;exitY=0.5;exitDx=0;exitDy=0;entryX=0;entryY=0.5;entryDx=0;entryDy=0;" edge="1" parent="1" source="YtNtoetQPvMVZuGuoTsO-14" target="r7B8fsAXVf-NEV4fAoJl-1">
          <mxGeometry width="50" height="50" relative="1" as="geometry">
            <mxPoint x="860" y="530" as="sourcePoint" />
            <mxPoint x="910" y="480" as="targetPoint" />
          </mxGeometry>
        </mxCell>
        <mxCell id="r7B8fsAXVf-NEV4fAoJl-5" value="" style="ellipse;whiteSpace=wrap;html=1;align=center;aspect=fixed;fillColor=none;strokeColor=none;resizable=0;perimeter=centerPerimeter;rotatable=0;allowArrows=0;points=[];outlineConnect=1;" vertex="1" parent="1">
          <mxGeometry x="875" y="520" width="10" height="10" as="geometry" />
        </mxCell>
        <mxCell id="r7B8fsAXVf-NEV4fAoJl-8" value="" style="ellipse;whiteSpace=wrap;html=1;aspect=fixed;" vertex="1" parent="1">
          <mxGeometry x="900" y="510" width="30" height="30" as="geometry" />
        </mxCell>
        <mxCell id="r7B8fsAXVf-NEV4fAoJl-9" value="" style="endArrow=none;html=1;rounded=0;entryX=0;entryY=0.5;entryDx=0;entryDy=0;exitX=1;exitY=0.5;exitDx=0;exitDy=0;" edge="1" parent="1">
          <mxGeometry width="50" height="50" relative="1" as="geometry">
            <mxPoint x="860.9999999999998" y="525" as="sourcePoint" />
            <mxPoint x="900.9999999999998" y="525" as="targetPoint" />
          </mxGeometry>
        </mxCell>
        <mxCell id="r7B8fsAXVf-NEV4fAoJl-10" value="Backend API" style="edgeLabel;html=1;align=center;verticalAlign=middle;resizable=0;points=[];" vertex="1" connectable="0" parent="r7B8fsAXVf-NEV4fAoJl-9">
          <mxGeometry x="0.7303" y="1" relative="1" as="geometry">
            <mxPoint x="12" y="-24" as="offset" />
          </mxGeometry>
        </mxCell>
      </root>
    </mxGraphModel>
  </diagram>
</mxfile>
